<?xml version="1.0" encoding="utf-8"?>
<!-- Generator: Adobe Illustrator 21.1.0, SVG Export Plug-In . SVG Version: 6.00 Build 0)  -->
<svg version="1.1" xmlns="http://www.w3.org/2000/svg" xmlns:xlink="http://www.w3.org/1999/xlink" x="0px" y="0px"
	 viewBox="0 0 512 512" style="enable-background:new 0 0 512 512;" xml:space="preserve">
<style type="text/css">
	.st0{fill:#FFFFFF;}
	.st1{display:none;}
</style>
<g id="Capa_4">
</g>
<g id="Layer_1">
</g>
<g id="Capa_2">
	<g>
		<g>
			<g>
				<path class="st0" d="M65.3,139.9l26.3,215.3h92.3V139.9H65.3z M144.9,322.1c-6.9,0-12.4-5.6-12.4-12.4s5.6-12.4,12.4-12.4
					c6.9,0,12.4,5.6,12.4,12.4S151.8,322.1,144.9,322.1z"/>
			</g>
			<g>
				<path class="st0" d="M190.5,163.5c0,0.7,0,1.2,0.1,1.4C190.5,164.6,190.5,164,190.5,163.5z"/>
				<path class="st0" d="M190.5,164.9C190.5,164.9,190.5,165,190.5,164.9C190.5,165,190.5,164.9,190.5,164.9z"/>
				<path class="st0" d="M190.4,163C190.4,163,190.4,163,190.4,163C190.4,163,190.4,163,190.4,163z"/>
				<path class="st0" d="M243.6,7.9c5.9,0.1,11.8-0.1,17.8,0.1c6.5,0.2,12.4,3.9,17.1,8.1c9.3,8.6,15.4,19.9,20.2,31.5
					c5.5,13.9,9.2,29.1,6.6,44.1c-2.9,16.5-7.6,32.6-12.5,48.5c38,0,76,0,114,0c4.9,0,9.9-0.1,14.8,1c9.2,2.2,17.3,8.6,21.6,17.1
					c4.5,8.8,4.9,19.7,0.7,28.7c-2.7,6.1-7.4,11.1-13,14.6c6.4,7.8,9.2,18.5,6.9,28.4c-1.9,8.8-7.6,16.5-15.2,21.2
					c6.6,7.9,9.3,18.9,6.7,29c-2.5,10.8-10.9,19.7-21.2,23.5c4.1,6.4,6.3,14.1,5.4,21.7c-1.1,13.1-11,24.8-23.6,28.3
					c-6.3,1.9-12.9,1.4-19.4,1.4c-46,0-92.1,0-138.1,0c-5.8-0.1-11.9,0.5-17.4-1.6c-6.9-2.5-12.3-8.2-14.9-15c-3.2,0-6.3,0-9.5,0"/>
				<path class="st0" d="M206.5,322.2c2.5,0,5.1,1,6.7,3c2.8,3.1,1.2,8.1,4.4,10.9c2.7,2.9,7,2.6,10.6,2.6c49,0,98,0,147,0
					c4.3,0,9,0.3,12.9-1.9c5.8-3,9.6-9.7,8.8-16.2c-0.6-7.5-7-14.1-14.6-14.8c-3.2-0.3-6.8-0.9-8.6-3.9c-3.2-4.4-0.6-11.4,4.7-12.5
					c7-1,14.1,0.1,21.1-0.6c7.4-1,13.5-7.6,14-15c0.7-7.2-4.1-14.5-11-16.8c-3.7-1.4-8.3-0.4-11.2-3.4c-3.8-3.5-3-10.4,1.6-12.9
					c4.2-2.2,9.1-0.8,13.7-1.3c7.6-0.4,14.4-6.9,15.1-14.5c1.1-8-4.6-16.3-12.6-18c-3-0.7-6.5-0.3-9-2.5c-3.9-3-4-9.4-0.2-12.5
					c3.7-3.2,8.9-1.8,13.3-2.1c5.4,0.1,10.9-2.6,13.9-7.1c4.1-5.6,3.9-13.9-0.4-19.4c-3.1-4.2-8.3-6.6-13.5-6.6
					c-43.9-0.1-87.8,0-131.8,0c-5.4,0.4-9.9-5.4-8-10.5c4.4-14.1,8.9-28.2,12.3-42.6c2.2-8.7,4.5-17.7,3.5-26.8
					c-1.3-12.5-5.6-24.6-11.9-35.4c-3.3-5.4-7-10.7-12-14.7c-1.4-1.1-2.9-2.2-4.8-2.2c-4.1-0.1-8.3,0-12.4,0c0,19.1,0,38.2,0,57.2
					c0.1,2.2-0.7,4.2-1.7,6.1c-15,29.8-29.8,59.6-44.8,89.4c-2.1,4.2-7.2,4.7-11.4,4.4v140.6C195.8,322.2,201.2,322.1,206.5,322.2z"
					/>
				<path class="st0" d="M190.5,165C190.5,165,190.5,165,190.5,165L190.5,165z"/>
				<path class="st0" d="M190.4,162.9c0,0,0,0,0,0.1C190.4,163,190.4,162.9,190.4,162.9z"/>
				<path class="st0" d="M214.9,353.6c5.6,2.1,11.6,1.5,17.4,1.6c46,0,92.1,0,138.1,0c6.5-0.1,13.1,0.4,19.4-1.4
					c12.6-3.5,22.5-15.2,23.6-28.3c1-7.6-1.3-15.3-5.4-21.7c10.3-3.8,18.7-12.7,21.2-23.5c2.6-10-0.2-21-6.7-29
					c7.6-4.7,13.3-12.4,15.2-21.2c2.3-9.9-0.5-20.6-6.9-28.4c5.6-3.6,10.2-8.6,13-14.6c4.2-9,3.9-19.9-0.7-28.7
					c-4.2-8.5-12.4-14.9-21.6-17.1c-4.8-1.1-9.8-1.1-14.8-1c-38,0-76,0-114,0c4.9-16,9.6-32.1,12.5-48.5c2.6-15-1.1-30.2-6.6-44.1
					c-4.8-11.5-10.9-22.9-20.2-31.5c-4.7-4.3-10.6-7.9-17.1-8.1c-5.9-0.2-11.8,0-17.8-0.1c-3,0-6.4-0.1-8.8,2
					c-2.4,1.9-3.1,5-3.1,7.9c0,20.2,0,40.4,0,60.6c0.2,2.3-1.2,4.2-2.2,6.2c-13.1,26.1-26.1,52.3-39.2,78.4c0,0,0,0.1,0,0.1
					c0,0,0,0,0,0c0,0.2,0,0.3,0,0.5c0,0.5,0,1.1,0.1,1.4c0,0,0,0,0,0c0,0,0,0.1,0,0.1c0,0,0,0,0,0c0,0,0-0.1,0-0.1c0,0,0,0,0,0
					c0-0.2,0-0.6-0.1-1.4c0-0.2,0-0.4,0-0.5c0,0,0,0,0,0c0-0.1,0-0.1,0-0.1v18.7c4.2,0.3,9.3-0.2,11.4-4.4
					c15-29.7,29.8-59.6,44.8-89.4c1-1.9,1.8-4,1.7-6.1c0-19.1,0-38.2,0-57.2c4.1,0,8.3-0.1,12.4,0c1.8,0,3.4,1.1,4.8,2.2
					c5,4,8.6,9.3,12,14.7c6.3,10.8,10.6,22.9,11.9,35.4c1,9.1-1.3,18-3.5,26.8c-3.3,14.4-7.8,28.5-12.3,42.6
					c-1.9,5.1,2.6,10.9,8,10.5c43.9,0.1,87.8,0,131.8,0c5.2,0,10.4,2.4,13.5,6.6c4.3,5.5,4.5,13.7,0.4,19.4
					c-3.1,4.5-8.5,7.2-13.9,7.1c-4.4,0.3-9.6-1-13.3,2.1c-3.7,3.1-3.6,9.5,0.2,12.5c2.5,2.2,6,1.7,9,2.5c8,1.6,13.7,9.9,12.6,18
					c-0.8,7.6-7.5,14.1-15.1,14.5c-4.5,0.6-9.5-0.9-13.7,1.3c-4.6,2.5-5.4,9.4-1.6,12.9c3,3.1,7.6,2,11.2,3.4
					c6.9,2.3,11.6,9.6,11,16.8c-0.4,7.5-6.6,14.1-14,15c-7,0.8-14.1-0.4-21.1,0.6c-5.3,1.1-7.9,8.1-4.7,12.5c1.8,3,5.4,3.6,8.6,3.9
					c7.5,0.6,14,7.2,14.6,14.8c0.7,6.5-3,13.2-8.8,16.2c-3.9,2.2-8.6,1.9-12.9,1.9c-49,0-98,0-147,0c-3.6,0-7.9,0.4-10.6-2.6
					c-3.2-2.9-1.7-7.8-4.4-10.9c-1.6-2-4.2-3-6.7-3c-5.4-0.1-10.7,0-16.1,0v16.5c3.2,0,6.3,0,9.5,0
					C202.5,345.5,208,351.1,214.9,353.6z"/>
				<path class="st0" d="M190.5,164.9C190.5,164.9,190.5,164.9,190.5,164.9C190.5,164.9,190.5,164.9,190.5,164.9z"/>
				<path class="st0" d="M190.4,163c0,0.1,0,0.3,0,0.5C190.4,163.4,190.4,163.2,190.4,163z"/>
			</g>
		</g>
		<g>
			<path class="st0" d="M170.7,504.1H94.4V376.6h32.3v102.7h41.5L170.7,504.1z"/>
			<path class="st0" d="M213.9,446.3v57.8h-32.5V376.6h32.5V446.3z"/>
			<path class="st0" d="M275.3,470.8c-5.3-8.3-11-17.3-17.3-27.4v60.7h-32.6V376.6h32.6v55.1c6.6-10.4,12.6-19.5,17.8-27.5
				c8.7-13.8,17.7-27.5,17.9-27.5h34l-41.3,60.5c0,0.9,38.2,58,43.9,67h-33.8C293.6,500.2,284.3,484.8,275.3,470.8z"/>
			<path class="st0" d="M372.7,428.3h33.1l-2,23.3h-31.1V479h41.6v25.2h-74.5V376.6h74.5v24.6h-41.6V428.3z"/>
		</g>
	</g>
</g>
<g id="Capa_3" class="st1">
</g>
</svg>
