<svg id="Capa_1" data-name="Capa 1" xmlns="http://www.w3.org/2000/svg" viewBox="0 0 200 55"><defs><style>.cls-1{fill:#c3373a;}.cls-2{fill:#fff;}</style></defs><title>logo_blanco</title><rect class="cls-1" x="0.03" y="8" width="75.73" height="39"/><path class="cls-2" d="M16.75,37.44l4.1-20.57h.23l7.11,14.59L35.3,16.89h.22l4,20.58H36.13L34,26.2,28.32,38.13H28L22.18,26.19,20,37.45Z"/><path class="cls-2" d="M46.28,18.56V29.17a6.68,6.68,0,0,0,1.22,4.35A4.42,4.42,0,0,0,51.1,35a4.32,4.32,0,0,0,3.58-1.49,6.9,6.9,0,0,0,1.21-4.41V18.56H59V29.16a9.5,9.5,0,0,1-2.15,6.59A7.48,7.48,0,0,1,51,38.12a8,8,0,0,1-6.13-2.32,9.31,9.31,0,0,1-2.16-6.61V18.56Z"/><path class="cls-2" d="M13.17,14.49v2.45h-.65a2.75,2.75,0,0,0-2,.57A3.73,3.73,0,0,0,10,19.86v3.32a5.65,5.65,0,0,1-.61,3,3.5,3.5,0,0,1-2.19,1.28,3.48,3.48,0,0,1,2.18,1.27,5.57,5.57,0,0,1,.61,3v3.29a3.69,3.69,0,0,0,.54,2.39,2.77,2.77,0,0,0,2,.58h.62v2.45h-.87A12.69,12.69,0,0,1,10,40.3a4.66,4.66,0,0,1-1.46-.51,2.53,2.53,0,0,1-1.1-1.33,8.86,8.86,0,0,1-.31-2.8v-3.4a4.18,4.18,0,0,0-.72-2.78A3.16,3.16,0,0,0,4,28.66H3.37V26.24l.3,0,.3,0a3.15,3.15,0,0,0,2.45-.81,4.18,4.18,0,0,0,.72-2.78V19.3a8.93,8.93,0,0,1,.32-2.83,2.45,2.45,0,0,1,1.1-1.3,4.32,4.32,0,0,1,1.5-.53,15.1,15.1,0,0,1,2.49-.16Z"/><path class="cls-2" d="M62.64,14.54h.62a15,15,0,0,1,2.48.16,4.32,4.32,0,0,1,1.5.53,2.45,2.45,0,0,1,1.1,1.3,8.86,8.86,0,0,1,.32,2.83v3.4a4.21,4.21,0,0,0,.71,2.79,3.16,3.16,0,0,0,2.46.81l.29,0,.3,0v2.45h-.59a3.16,3.16,0,0,0-2.45.81,4.18,4.18,0,0,0-.72,2.78v3.4a8.76,8.76,0,0,1-.32,2.82,2.53,2.53,0,0,1-1.11,1.31,4.37,4.37,0,0,1-1.49.52,15.13,15.13,0,0,1-2.49.16h-.62V38.07h.62a2.78,2.78,0,0,0,2-.57,3.74,3.74,0,0,0,.54-2.4V31.83a5.49,5.49,0,0,1,.62-3,3.54,3.54,0,0,1,2.2-1.29,3.56,3.56,0,0,1-2.2-1.29,5.55,5.55,0,0,1-.62-3V19.92a3.75,3.75,0,0,0-.52-2.39,2.74,2.74,0,0,0-2-.57h-.65Z"/><rect class="cls-2" x="42.72" y="14.54" width="3.56" height="2.45"/><rect class="cls-2" x="55.9" y="14.54" width="3.13" height="2.45"/><path class="cls-2" d="M91.61,33.21a15.28,15.28,0,0,0,2.94,1.52,7.35,7.35,0,0,0,2.53.49,3.92,3.92,0,0,0,2.52-.77,2.43,2.43,0,0,0,1-2,2.86,2.86,0,0,0-.65-1.83,8.42,8.42,0,0,0-2.25-1.76L96.18,28A10.72,10.72,0,0,1,93,25.34,4.85,4.85,0,0,1,92,22.4a4.76,4.76,0,0,1,1.66-3.76A6.35,6.35,0,0,1,98,17.18a10.72,10.72,0,0,1,2.51.29,11.73,11.73,0,0,1,2.46.91l-.11,3.15a16.34,16.34,0,0,0-2.59-1.18,6.44,6.44,0,0,0-2-.37,3.42,3.42,0,0,0-2.14.61,2,2,0,0,0-.78,1.65,2.23,2.23,0,0,0,.57,1.48A8.79,8.79,0,0,0,98,25.3l1.43.83A11.64,11.64,0,0,1,103,29a5.54,5.54,0,0,1,1,3.33,5.38,5.38,0,0,1-1.86,4.26,7.26,7.26,0,0,1-4.95,1.62A12.89,12.89,0,0,1,94.49,38a11.74,11.74,0,0,1-2.57-.88Z"/><path class="cls-2" d="M117,20.86V37.59h-3.49V20.86h-6.67v-3h16.79v3Z"/><path class="cls-2" d="M130.9,17.85V29.37a6.62,6.62,0,0,0,1.21,4.31,4.38,4.38,0,0,0,3.58,1.46,4.28,4.28,0,0,0,3.54-1.48,6.84,6.84,0,0,0,1.2-4.37V17.85h3.1V29.34a9.41,9.41,0,0,1-2.12,6.53,7.41,7.41,0,0,1-5.8,2.36,7.91,7.91,0,0,1-6.08-2.29,9.22,9.22,0,0,1-2.14-6.54V17.85Z"/><path class="cls-2" d="M149.57,37.59V17.85h4.77q5.53,0,8.68,2.64a8.93,8.93,0,0,1,3.15,7.23,9.49,9.49,0,0,1-1.25,4.88,9.68,9.68,0,0,1-3.64,3.51,10,10,0,0,1-3,1.14,19.29,19.29,0,0,1-4,.35ZM153,34.45h1.78a8.55,8.55,0,0,0,5.77-1.79,6.17,6.17,0,0,0,2.08-4.94,6.17,6.17,0,0,0-2.08-4.94A8.57,8.57,0,0,0,154.78,21H153Z"/><path class="cls-2" d="M171.15,37.59V17.85h3.49V37.59Z"/><path class="cls-2" d="M179.67,27.72a11.57,11.57,0,0,1,.51-3.47,10.39,10.39,0,0,1,1.52-3,9.7,9.7,0,0,1,3.44-3,9.49,9.49,0,0,1,8.12-.27,9.5,9.5,0,0,1,3.17,2.23,10.42,10.42,0,0,1,2.14,3.4,11.79,11.79,0,0,1,0,8.2,10.12,10.12,0,0,1-2.14,3.38,10,10,0,0,1-3.2,2.25,9.34,9.34,0,0,1-7.49,0,9.7,9.7,0,0,1-3.17-2.23,10.22,10.22,0,0,1-2.16-3.4A11.27,11.27,0,0,1,179.67,27.72Zm3.57,0a7.46,7.46,0,0,0,1.8,5.11,5.87,5.87,0,0,0,8.91,0,7.44,7.44,0,0,0,1.81-5.11A7.47,7.47,0,0,0,194,22.6a5.91,5.91,0,0,0-8.94,0A7.48,7.48,0,0,0,183.23,27.72Z"/></svg>